<svg xmlns="http://www.w3.org/2000/svg" viewBox="0 0 64 64">
  <defs>
    <linearGradient id="grad" x1="0%" y1="0%" x2="100%" y2="100%">
      <stop offset="0%" style="stop-color:#6366f1;stop-opacity:1" />
      <stop offset="100%" style="stop-color:#8b5cf6;stop-opacity:1" />
    </linearGradient>
  </defs>
  
  <!-- Background circle -->
  <circle cx="32" cy="32" r="30" fill="url(#grad)"/>
  
  <!-- Shield representing privacy/security -->
  <path d="M 32 12 L 20 18 L 20 30 C 20 40 26 48 32 52 C 38 48 44 40 44 30 L 44 18 Z" 
        fill="white" opacity="0.95"/>
  
  <!-- Lock inside shield -->
  <rect x="28" y="28" width="8" height="10" rx="1" fill="#6366f1"/>
  <path d="M 28 28 L 28 24 C 28 20 31 17 32 17 C 33 17 36 20 36 24 L 36 28" 
        stroke="#6366f1" stroke-width="2" fill="none" stroke-linecap="round"/>
  
  <!-- Small chart/graph lines at bottom representing credit scoring -->
  <path d="M 18 48 L 22 46 L 26 50 L 30 44 L 34 48 L 38 42 L 42 46 L 46 48" 
        stroke="white" stroke-width="2" fill="none" stroke-linecap="round" opacity="0.8"/>
</svg>

